<svg width="79" height="70" viewBox="0 0 79 70" fill="none" xmlns="http://www.w3.org/2000/svg">
<path d="M39.7891 0.340141C38.7312 0.845955 37.9137 1.79435 38.0259 2.3792C38.074 2.61629 38.0419 2.85339 37.9618 2.90082C37.7694 3.02727 36.9038 5.71439 36.7595 6.63118C36.6634 7.29506 36.6794 7.3741 37.1282 7.73765C37.3847 7.94313 37.8335 8.24346 38.106 8.38572C38.5228 8.60701 38.6029 8.74927 38.6029 9.22347C38.6029 9.63445 38.667 9.7767 38.8594 9.7767C39.4685 9.7767 40.4143 9.36573 41.0234 8.84411C41.5203 8.43314 41.6485 8.38572 41.5043 8.63863C41.2157 9.19186 40.286 9.79251 38.8754 10.3457C38.1541 10.6303 37.3366 11.0412 37.0641 11.2625C36.5031 11.7051 35.8779 12.8274 35.8779 13.4122C35.8779 13.918 36.8397 14.7716 38.2022 15.5145C38.9395 15.9097 39.164 16.0836 38.8434 16.0203C38.2022 15.8781 36.6954 15.1193 35.5413 14.3448C34.4032 13.5861 34.3551 13.3174 35.1406 12.1635C35.6695 11.389 35.6856 11.3574 35.349 11.3574C33.9865 11.3732 31.7904 12.1635 30.7485 13.0487C29.6264 13.9813 29.1456 15.9097 29.7707 17.0478C29.9951 17.4745 30.0272 17.7116 29.915 18.0752C29.8348 18.3281 29.7707 19.9404 29.7547 21.6317C29.7386 26.1998 30.1554 28.3811 32.095 34.0715C33.4094 37.9125 34.6757 40.9632 35.91 43.3184C36.8076 45.0413 36.984 45.2784 38.3465 46.4639C39.1479 47.1752 40.0456 48.0604 40.3501 48.4081C40.6547 48.7717 41.2798 49.4514 41.7447 49.9256C42.7706 50.9846 42.8988 51.2533 43.6362 53.5927C44.3254 55.7424 45.2071 57.576 46.1368 58.6983C48.1565 61.1799 49.1824 62.7922 49.1824 63.4877C49.1824 63.6457 49.3106 64.1515 49.4869 64.6257C49.6472 65.0999 49.8396 66.0483 49.8877 66.7122C50.096 69.02 50.6731 70 51.8433 70C52.7088 70 53.3019 69.7787 53.879 69.2413C55.1453 68.0716 55.0652 66.8387 53.6065 64.9419C52.7088 63.7564 51.9555 61.7173 51.7471 59.9154C51.4105 57.0227 49.9197 51.933 48.7816 49.8465C48.413 49.151 47.9962 48.1868 47.8519 47.7126C47.7077 47.2384 47.355 46.4797 47.0825 46.0529L46.5535 45.2626L46.6016 43.0181C46.6337 40.6313 46.4734 39.6671 45.736 37.8809L45.3513 36.9641H47.355C49.1343 36.9641 49.3427 36.9957 49.3427 37.2328C49.3427 37.9441 49.6953 40.4732 49.9197 41.39C50.064 41.959 50.5288 43.1445 50.9616 44.0297C51.9074 45.9581 53.5103 47.7284 54.5683 48.013C54.9209 48.092 57.5818 48.4239 60.4992 48.7401C65.4843 49.2617 65.837 49.2933 66.4942 49.0562C68.2254 48.4556 70.1649 46.6852 71.303 44.662C72.0884 43.271 72.8258 41.0897 73.1624 39.1296C73.3067 38.3393 73.4349 37.6754 73.4349 37.6596C73.451 37.6596 74.4287 37.7228 75.5829 37.8019C77.9071 37.9757 78.0033 37.9441 78.4682 37.0748C78.8048 36.4267 78.6605 35.3202 78.1796 34.8144C77.8591 34.4825 77.6827 34.4351 76.6889 34.4351C76.0638 34.4351 75.0699 34.3876 74.4929 34.3402L73.4349 34.2296L73.3387 32.9492C73.0502 29.1715 71.1908 25.5833 68.6421 23.9236C68.1612 23.6075 67.3758 23.2123 66.927 23.0543C66.1095 22.7698 66.0133 22.7698 61.1243 23.2123C55.5941 23.6865 55.5941 23.6865 53.9431 25.0301C52.8691 25.8837 51.8112 27.3063 51.0258 28.9185C50.4647 30.0882 49.6632 32.8386 49.6632 33.6289C49.6632 33.8502 49.5991 34.1189 49.535 34.2138C49.4709 34.3244 48.445 34.4351 46.7779 34.5141L44.1331 34.6247L43.6682 33.7238C43.1072 32.6489 43.1072 32.6331 44.7422 30.7521C46.1849 29.0924 46.5696 28.3653 46.8581 26.7688C47.0985 25.362 47.5313 24.6666 48.8778 23.5127C49.9518 22.5959 50.5128 21.5843 50.4968 20.5884C50.4968 19.7823 49.8235 18.4704 49.1343 17.9013C48.5732 17.4429 48.8778 17.4113 49.7434 17.8381C50.096 18.012 50.3846 18.1542 50.4006 18.1542C50.4166 18.1542 50.593 17.7907 50.7853 17.3323C51.0738 16.6842 51.1219 16.3207 51.0578 15.6094C50.9616 14.5977 50.7372 14.0919 49.8396 12.9696C48.9099 11.8158 47.9802 11.3258 46.5535 11.2309C44.9185 11.1361 44.7582 10.9622 44.5499 9.14444L44.3896 7.67442L44.9827 7.02635C45.8002 6.15698 46.0406 5.2402 45.9444 3.53308C45.8643 2.47404 45.7681 2.04726 45.4315 1.47822C44.8063 0.434982 44.0369 0.0872345 42.1294 0.0240097C40.7829 -0.0392227 40.5104 0.0082016 39.7891 0.340141ZM44.63 16.3207C43.7324 17.19 43.4919 17.68 43.2515 18.9446C42.995 20.3355 43.2354 21.932 43.7484 22.264C43.8125 22.3114 43.4599 22.9594 42.9629 23.7024C41.4241 25.9627 41.2798 26.3579 41.1516 28.4285C41.0715 29.5982 40.9112 30.5782 40.7028 31.1947C40.4143 32.0008 40.3822 32.0483 40.4623 31.5108C40.5104 31.1631 40.6066 29.7089 40.6707 28.2705C40.7829 25.4253 40.8951 25.0617 42.0493 23.5759C42.5301 22.9594 42.5622 22.8488 42.434 22.2323C42.3699 21.853 42.3057 20.9046 42.3057 20.1301C42.2897 18.4387 42.5622 17.7591 43.5881 16.779C44.1491 16.2574 45.0628 15.6252 45.2872 15.6252C45.3032 15.6252 45.0147 15.9413 44.63 16.3207ZM65.9331 26.1998C62.5509 27.7489 60.6915 35.5573 62.3425 41.39C62.9196 43.4607 63.8493 44.9465 65.0355 45.6894C65.853 46.1952 65.6286 46.2742 64.6508 45.8316C60.948 44.172 59.7618 35.0515 62.4868 29.2663C63.4325 27.2747 64.9233 25.8995 66.1736 25.8995C66.5102 25.8995 66.4781 25.9469 65.9331 26.1998ZM67.8727 32.5067C67.8246 32.5541 67.6162 32.6647 67.4239 32.7596C66.7506 33.0915 66.414 33.9292 66.414 35.2254C66.414 36.648 66.7987 37.4857 67.504 37.5648C67.9849 37.628 68.0811 37.8335 67.6804 37.9757C67.2155 38.1496 66.7026 38.0706 66.4461 37.7861C65.1798 36.3951 65.6286 32.807 67.1353 32.3486C67.4239 32.2537 67.9849 32.3802 67.8727 32.5067Z" fill="white"/>
<path d="M28.0717 19.8139C27.8953 20.2407 27.6228 20.9994 27.4786 21.4894C27.2862 22.1059 27.0297 22.5485 26.5809 22.9752C26.2283 23.323 25.9397 23.6707 25.9397 23.7656C25.9397 23.8446 25.4909 24.4611 24.9619 25.1091C23.7758 26.5475 23.1987 27.6382 22.7339 29.2979C22.5415 29.9934 21.8683 31.7005 21.2431 33.0915C20.634 34.4825 20.073 35.9367 20.0249 36.316L19.9287 37.0273L18.8066 37.217C16.8831 37.549 16.9312 37.5648 16.5785 36.4899C15.9374 34.4667 14.4146 32.5699 12.7154 31.6847C11.7857 31.2105 11.6896 31.1947 9.83015 31.2105C7.45779 31.2105 4.84499 31.7795 3.75499 32.5225C0.00409737 35.0831 -1.10193 40.5206 1.19028 45.1678C1.9116 46.6062 3.37028 48.1078 4.6847 48.7401C5.59837 49.1827 5.6144 49.1827 7.79441 49.072C11.8018 48.8823 13.3406 48.4239 14.7832 47.0013C16.306 45.4839 17.1075 43.5081 17.2358 40.8842L17.3319 39.1771L17.8288 39.098C19.8966 38.7661 20.3936 38.7187 20.5058 38.8925C20.5699 38.9874 20.9866 39.0348 21.5958 38.9874C22.4453 38.9241 22.5736 38.9558 22.4774 39.1612C21.9805 40.3942 21.7721 41.3426 21.6278 43.1129C21.5316 44.2352 21.3553 45.4365 21.2271 45.7684C21.0988 46.1004 20.9546 46.9381 20.9065 47.6336C20.8584 48.3291 20.5699 49.9888 20.2493 51.3166C19.6402 53.8614 18.983 57.5128 18.7906 59.2989C18.6944 60.2631 18.6463 60.3896 18.1655 60.6741C17.2518 61.2273 17.0434 61.5751 17.0434 62.5077C17.0434 63.2348 16.9793 63.4244 16.5625 63.8354C16.29 64.0883 15.2802 64.6574 14.2382 65.0999C12.8597 65.6848 12.2346 66.0483 11.7697 66.5384C11.3049 67.0284 11.1926 67.218 11.3369 67.3603C11.6094 67.629 18.2777 67.5974 19.8005 67.3287C21.4836 67.0442 21.4996 66.9809 21.5316 64.2622C21.5637 61.5909 21.5156 61.7015 23.7918 57.9712C26.068 54.1934 26.1481 53.9721 26.2283 51.1111C26.3244 48.013 26.3084 48.0288 29.7067 44.5513C30.7646 43.4607 31.8225 42.2119 32.079 41.7535L32.5118 40.9474L31.6943 38.2761C30.2517 33.5815 29.1777 28.6973 28.8892 25.5991L28.777 24.4453L28.3922 25.7572C27.9274 27.3537 27.719 27.7647 27.703 27.085C27.703 26.1998 28.0396 23.7656 28.28 22.8962C28.4403 22.3272 28.5045 21.521 28.4724 20.5252L28.4243 19.0236L28.0717 19.8139ZM24.3368 32.3802C24.2406 32.5541 24.1284 32.6963 24.0803 32.6963C24.0483 32.6963 24.0803 32.5541 24.1765 32.3802C24.2727 32.2063 24.3849 32.0641 24.433 32.0641C24.465 32.0641 24.433 32.2063 24.3368 32.3802ZM11.4331 33.1547C11.385 33.2338 11.1446 33.3444 10.8881 33.4076C10.1187 33.5657 9.01265 34.6722 8.48367 35.747C7.37764 38.0706 7.37764 40.7577 8.48367 43.0813C9.02868 44.1878 10.1187 45.3575 10.9041 45.642C12.0262 46.0687 12.1063 46.1478 11.3049 46.0529C8.7722 45.8 6.8647 42.9548 6.8647 39.4142C6.8647 35.9683 8.78823 33.1705 11.2407 33.0283C11.401 33.0125 11.4972 33.0757 11.4331 33.1547ZM24.7215 34.277C25.4108 35.0357 25.4428 35.3518 24.8497 35.9051C24.0322 36.6796 23.8559 36.5215 23.8559 34.9883C23.8559 34.2454 23.92 33.6447 24.0002 33.6447C24.0803 33.6447 24.4009 33.9292 24.7215 34.277ZM12.9559 37.4383C12.9559 37.5174 12.8597 37.5964 12.7475 37.5964C12.475 37.5964 12.1544 38.2603 12.1544 38.8451C12.1544 39.8251 12.8116 40.8051 13.2765 40.5206C13.3727 40.4732 13.4368 40.5048 13.4368 40.5997C13.4368 40.6945 13.2604 40.8526 13.036 40.9474C12.6834 41.1055 12.5712 41.0739 12.2346 40.7577C11.5453 40.1096 11.401 38.2287 11.9941 37.5174C12.2185 37.2486 12.9559 37.2012 12.9559 37.4383Z" fill="white"/>
</svg>
